<svg xmlns="http://www.w3.org/2000/svg" viewBox="0 0 74 18"><style>.st0{enable-background:new}.st1{fill:#fff}.st2{fill-rule:evenodd;clip-rule:evenodd;fill:#ff6212}</style><g id="Rectangle_20_copy_6_1_" class="st0"><path class="st1" d="M24 4h-6V0h-4v18h4V6h4v12h4V6h-2V4zm10 2h-2V4h-4v14h4V8h6V4h-4v2zm16-2h-8v2h-2v10h2v2h8v-2h-6v-4h8V6h-2V4zm-2 6h-4V6h4v4zm4 4h-2v2h2v-2zm8-12h4V0h-6v2h-2v2h-2v2h2v12h4V6h2V4h-2V2zm6 2v2h-2v4h2v2h2v2h2v2h-4v2h6v-2h2v-4h-2v-2h-2V8h-2V6h4V4h-6zm8 4V6h-2v2h2zm-10 6v2h2v-2h-2z" id="Rectangle_20_copy_6"/></g><g id="Rectangle_20_copy_8_1_" class="st0"><path class="st2" d="M0 8h2V6H0v2zm10-2V4H2v2h6v4H2v2H0v4h2v2h10V6h-2zM8 16H4v-4h4v4z" id="Rectangle_20_copy_8"/></g></svg>