<svg xmlns="http://www.w3.org/2000/svg" width="12.969" height="13.781" viewBox="0 0 12.969 13.781">
  <defs>
    <style>
      .cls-1 {
        fill: #13bf80;
        fill-rule: evenodd;
      }
    </style>
  </defs>
  <path id="Shape_1_copy_4" data-name="Shape 1 copy 4" class="cls-1" d="M0.677,7.92L2.333,5.872,5.305,9.108l6.435-8.9L13.653,1.74,5.433,12.9Zm0,84,1.656-2.048,2.972,3.236,6.435-8.9,1.913,1.533L5.433,96.9Zm0,28,1.656-2.048,2.972,3.237,6.435-8.9,1.913,1.532L5.433,124.9Zm0,28,1.656-2.048,2.972,3.237,6.435-8.9,1.913,1.533L5.433,152.9Zm0-112,1.656-2.048,2.972,3.236,6.435-8.9,1.913,1.533L5.433,40.9Zm0,28,1.656-2.047,2.972,3.236,6.435-8.9,1.913,1.533L5.433,68.9Z" transform="translate(-0.688 -0.219)"/>
</svg>
