<svg id="Группа_1" data-name="Группа 1" xmlns="http://www.w3.org/2000/svg" width="15" height="15" viewBox="0 0 15 15">
  <defs>
    <style>
      .cls-1 {
        fill: #dbdbdb;
      }

      .cls-2 {
        fill: #fff;
        fill-rule: evenodd;
      }
    </style>
  </defs>
  <circle id="Ellipse_1_copy_6" data-name="Ellipse 1 copy 6" class="cls-1" cx="7.5" cy="7.5" r="7.5"/>
  <path id="_copy_6" data-name="? copy 6" class="cls-2" d="M5.809,4.6a0.375,0.375,0,0,0,.347.2,0.413,0.413,0,0,0,.219-0.073q0.115-.073.28-0.161a2.348,2.348,0,0,1,.392-0.161,1.867,1.867,0,0,1,.563-0.073,1.087,1.087,0,0,1,.733.237,0.8,0.8,0,0,1,.277.639,1.092,1.092,0,0,1-.143.569,1.892,1.892,0,0,1-.353.432,4.367,4.367,0,0,1-.45.359,4.083,4.083,0,0,0-.435.347,1.5,1.5,0,0,0-.31.4,0.805,0.805,0,0,0-.073.508L6.971,8.8H8.12l0.152-.87a0.66,0.66,0,0,1,.192-0.344,3.321,3.321,0,0,1,.368-0.313q0.213-.158.45-0.341a2.5,2.5,0,0,0,.435-0.432,2.243,2.243,0,0,0,.328-0.587,2.211,2.211,0,0,0,.131-0.8A2.115,2.115,0,0,0,10,4.248a1.9,1.9,0,0,0-.49-0.666,2.206,2.206,0,0,0-.76-0.426,3.1,3.1,0,0,0-.991-0.149,3.708,3.708,0,0,0-.739.07,3.51,3.51,0,0,0-.639.192,3.326,3.326,0,0,0-.547.286,4.394,4.394,0,0,0-.471.353Zm0.769,6.831a0.948,0.948,0,0,0,.21.307,0.959,0.959,0,0,0,.313.2,1.083,1.083,0,0,0,.782,0,0.949,0.949,0,0,0,.6-0.894,0.965,0.965,0,0,0-.076-0.38,0.945,0.945,0,0,0-.21-0.31,1.014,1.014,0,0,0-1.411,0,0.942,0.942,0,0,0-.21.31A1,1,0,0,0,6.578,11.432Z"/>
</svg>
