<svg xmlns="http://www.w3.org/2000/svg" width="74" height="18" viewBox="0 0 74 18">
  <defs>
    <style>
      .cls-1 {
        fill: #aaa9a9;
        fill-rule: evenodd;
        opacity: 0.5;
      }
    </style>
  </defs>
  <path id="Rectangle_20_copy_9" data-name="Rectangle 20 copy 9" class="cls-1" d="M150,5205v-12h-4v12h-4v-18h4v4h6v2h2v12h-4Zm10-10v10h-4v-14h4v2h2v-2h4v4h-6Zm20,6v2h-2v-2h2Zm-10,4v-2h-2v-10h2v-2h8v2h2v6h-8v4h6v2h-8Zm6-8v-4h-4v4h4Zm12-8v2h2v2h-2v12h-4v-12h-2v-2h2v-2h2v-2h6v2h-4Zm10,6v2h2v2h2v4h-2v2h-6v-2h4v-2h-2v-2h-2v-2h-2v-4h2v-2h6v2h-4v2h2Zm-6,6h2v2h-2v-2Zm10-6h-2v-2h2v2Zm-72,10v-2h-2v-4h2v-2h6v-4h-6v-2h8v2h2v12H130Zm2-6v4h4v-4h-4Zm-4-4v-2h2v2h-2Z" transform="translate(-128 -5187)"/>
</svg>
